<svg xmlns="http://www.w3.org/2000/svg" xmlns:xlink="http://www.w3.org/1999/xlink" viewBox="0 0 965.72 965.76"><defs><clipPath id="clip-path"><path d="M482.86,965.6c-11.89.24-27.74-.64-39.59-1.6-11.66-.94-27.16-2.86-38.71-4.72-11.4-1.84-26.5-4.95-37.71-7.71s-25.71-7-36.57-10.58A478,478,0,0,1,261,911.72c-19.83-10.26-44.74-26.76-63.25-39.26C189,865.54,176.87,857,168.7,849.4s-19.32-17.33-27.19-25.19S123.56,805.47,116.33,797c-14.49-16.9-31.42-41.41-43.88-59.87-6.26-9.28-13.38-22.46-18.44-32.44-10.21-20.12-21.33-48.15-29.27-69.26-4-10.69-7.89-25.48-10.59-36.58s-5.85-26.31-7.71-37.7c-1.88-11.55-3.31-27.1-4.71-38.71C.3,510.66.6,494.74.13,482.87a486,486,0,0,1,6.31-78.31A480.84,480.84,0,0,1,93.26,197.77,484.76,484.76,0,0,1,261,54,479.84,479.84,0,0,1,404.56,6.44,488,488,0,0,1,482.86.12c23.55,1,55.2,1.66,78.3,6.32,11.32,2.29,26.61,4.51,37.71,7.72,21.84,6.3,50.89,15.2,71.89,23.9,20.72,8.58,47.79,21.85,66.38,34.39,9.25,6.24,22.08,13.88,30.82,20.82,17.41,13.81,40.52,32.53,56.24,48.25s34.44,38.83,48.25,56.25c6.94,8.74,14.58,21.56,20.82,30.81,12.54,18.6,25.81,45.66,34.39,66.38,8.7,21,17.6,50.06,23.9,71.9,3.2,11.09,5.43,26.39,7.72,37.7,4.66,23.11,5.36,54.76,6.31,78.31-1,23.54-1.65,55.2-6.31,78.3-2.29,11.32-4.52,26.61-7.72,37.7-6.3,21.84-15.2,50.9-23.9,71.9-8.58,20.72-21.85,47.78-34.39,66.38C887,746.4,879.39,759.22,872.45,768c-13.81,17.42-32.52,40.53-48.25,56.25-7.86,7.86-18.74,17.95-27.18,25.19S776.68,865.54,768,872.46,746.39,887,737.14,893.28s-22.5,13.29-32.44,18.44-23.58,11.56-33.94,15.94-24.57,9.76-35.32,13.33-25.6,7.41-36.57,10.58-26.39,5.43-37.71,7.71C538.06,964,506.42,965.12,482.86,965.6Z" fill="none"/></clipPath><clipPath id="clip-path-2"><path d="M965.59,482.87c0-23.57-1.65-55.2-6.31-78.31-2.29-11.31-4.52-26.61-7.72-37.7-6.3-21.84-15.2-50.9-23.9-71.9-8.58-20.72-21.85-47.78-34.39-66.38-6.24-9.25-13.88-22.07-20.82-30.81-13.81-17.42-32.52-40.53-48.25-56.25S785.37,107.08,768,93.27c-8.74-6.94-21.57-14.58-30.82-20.82-18.59-12.54-45.66-25.81-66.38-34.39-21-8.7-50-17.6-71.89-23.9-11.1-3.21-26.39-5.43-37.71-7.72-23.1-4.66-54.75-5.36-78.3-6.31,266.57,0,482.66,216.13,482.66,482.74S749.43,965.6,482.86,965.6c11.89,0,27.74-.64,39.59-1.6,11.66-.94,27.16-2.86,38.71-4.72s26.5-4.95,37.71-7.71,25.71-7,36.57-10.58a477.52,477.52,0,0,0,69.26-29.27C724.54,901.46,749.45,885,768,872.46c17.41-13.82,39.94-33.14,56.24-48.25,0,0,34.44-38.83,48.25-56.25,6.94-8.74,14.58-21.56,20.82-30.81,12.54-18.6,25.81-45.66,34.39-66.38,8.7-21,17.6-50.06,23.9-71.9,3.2-11.09,5.43-26.38,7.72-37.7C963.94,538.07,965.59,506.43,965.59,482.87Z" fill="none"/></clipPath><clipPath id="clip-path-3"><path d="M482.86,965.6c-11.88-.48-27.74-.64-39.59-1.6-11.66-.94-27.25-2.4-38.71-4.72s-26.61-4.51-37.71-7.71-25.73-7-36.57-10.58-24.86-9-35.32-13.33S271,916.89,261,911.72s-23.15-12.19-32.43-18.44-22.08-13.89-30.82-20.82c-17.41-13.82-40.23-32.83-56.25-48.25-8-7.71-17.94-18.75-25.18-27.19S100.18,776.68,93.26,768,78.69,746.4,72.45,737.15c-12.54-18.6-25.81-45.66-34.39-66.38-8.7-21-17.61-50.06-23.91-71.9-3.2-11.09-5.42-26.38-7.71-37.7s-3.77-27-4.71-38.71c-1-11.85-1.6-27.71-1.6-39.59a486,486,0,0,1,6.31-78.31A480.84,480.84,0,0,1,93.26,197.77,484.76,484.76,0,0,1,261,54,479.84,479.84,0,0,1,404.56,6.44,488,488,0,0,1,482.86.12c266.57,0,482.66,216.14,482.66,482.75S749.43,965.6,482.86,965.6Z" fill="none"/></clipPath></defs><g id="Layer_2" data-name="Layer 2"><g id="Layer_1-2" data-name="Layer 1"><g style="isolation:isolate"><g style="isolation:isolate"><g clip-path="url(#clip-path)"><g style="isolation:isolate"><path d="M482.86,965.6c266.57,0,482.66-216.13,482.66-482.73H491.28C491.28,749.47,487.51,965.6,482.86,965.6Z" fill="none" stroke="#000" stroke-miterlimit="10" stroke-width="0.25"/><path d="M726.47,899.69H487.11" fill="none" stroke="#000" stroke-miterlimit="10" stroke-width="0.25"/><path d="M899.62,726.51H490.13" fill="none" stroke="#000" stroke-miterlimit="10" stroke-width="0.25"/><path d="M482.86,965.6c232.52,0,421-216.13,421-482.73" fill="none" stroke="#000" stroke-miterlimit="10" stroke-width="0.25"/><path d="M482.86,965.6c138.56,0,250.88-216.13,250.88-482.73" fill="none" stroke="#000" stroke-miterlimit="10" stroke-width="0.25"/><path d="M482.86,965.6c4.65,0,8.42-216.13,8.42-482.73H.2C.2,749.47,216.29,965.6,482.86,965.6Z" fill="none" stroke="#000" stroke-miterlimit="10" stroke-width="0.25"/><path d="M487.11,899.69H239.25" fill="none" stroke="#000" stroke-miterlimit="10" stroke-width="0.25"/><path d="M490.13,726.51H66.1" fill="none" stroke="#000" stroke-miterlimit="10" stroke-width="0.25"/><path d="M482.86,965.6c-130.52,0-236.33-216.13-236.33-482.73" fill="none" stroke="#000" stroke-miterlimit="10" stroke-width="0.25"/><path d="M482.86,965.6C255,965.6,70.35,749.47,70.35,482.87" fill="none" stroke="#000" stroke-miterlimit="10" stroke-width="0.25"/><path d="M482.86,965.6C216.29,965.6.2,749.47.2,482.87H474.43C474.43,749.47,478.21,965.6,482.86,965.6Z" fill="none" stroke="#000" stroke-miterlimit="10" stroke-width="0.25"/><path d="M239.25,899.69H478.61" fill="none" stroke="#000" stroke-miterlimit="10" stroke-width="0.25"/><path d="M66.1,726.51H475.58" fill="none" stroke="#000" stroke-miterlimit="10" stroke-width="0.25"/><path d="M965.52,482.87C965.52,216.26,749.43.13,482.86.12c4.65,0,8.42,216.14,8.42,482.75Z" fill="none" stroke="#000" stroke-miterlimit="10" stroke-width="0.25"/><path d="M899.62,239.22H490.13" fill="none" stroke="#000" stroke-miterlimit="10" stroke-width="0.25"/><path d="M726.47,66H487.11" fill="none" stroke="#000" stroke-miterlimit="10" stroke-width="0.25"/><path d="M903.87,482.87C903.87,216.26,715.38.12,482.86.12" fill="none" stroke="#000" stroke-miterlimit="10" stroke-width="0.25"/><path d="M733.74,482.87C733.74,216.26,621.42.12,482.86.12" fill="none" stroke="#000" stroke-miterlimit="10" stroke-width="0.25"/><path d="M491.28,482.87c0-266.61-3.77-482.75-8.42-482.75C216.29.12.2,216.26.2,482.87Z" fill="none" stroke="#000" stroke-miterlimit="10" stroke-width="0.25"/><path d="M490.13,239.22H66.1" fill="none" stroke="#000" stroke-miterlimit="10" stroke-width="0.25"/><path d="M487.11,66H239.25" fill="none" stroke="#000" stroke-miterlimit="10" stroke-width="0.25"/><path d="M246.53,482.87C246.53,216.26,352.34.12,482.86.12" fill="none" stroke="#000" stroke-miterlimit="10" stroke-width="0.25"/><path d="M70.35,482.87C70.35,216.26,255,.12,482.86.12" fill="none" stroke="#000" stroke-miterlimit="10" stroke-width="0.25"/><path d="M.2,482.87C.2,216.26,216.29.12,482.86.12c-4.65,0-8.43,216.14-8.43,482.75Z" fill="none" stroke="#000" stroke-miterlimit="10" stroke-width="0.25"/><path d="M66.1,239.22H475.58" fill="none" stroke="#000" stroke-miterlimit="10" stroke-width="0.25"/><path d="M239.25,66H478.61" fill="none" stroke="#000" stroke-miterlimit="10" stroke-width="0.25"/></g><path d="M482.86,965.6c-11.89.24-27.74-.64-39.59-1.6-11.66-.94-27.16-2.86-38.71-4.72-11.4-1.84-26.5-4.95-37.71-7.71s-25.71-7-36.57-10.58A478,478,0,0,1,261,911.72c-19.83-10.26-44.74-26.76-63.25-39.26C189,865.54,176.87,857,168.7,849.4s-19.32-17.33-27.19-25.19S123.56,805.47,116.33,797c-14.49-16.9-31.42-41.41-43.88-59.87-6.26-9.28-13.38-22.46-18.44-32.44-10.21-20.12-21.33-48.15-29.27-69.26-4-10.69-7.89-25.48-10.59-36.58s-5.85-26.31-7.71-37.7c-1.88-11.55-3.31-27.1-4.71-38.71C.3,510.66.6,494.74.13,482.87a486,486,0,0,1,6.31-78.31A480.84,480.84,0,0,1,93.26,197.77,484.76,484.76,0,0,1,261,54,479.84,479.84,0,0,1,404.56,6.44,488,488,0,0,1,482.86.12c23.55,1,55.2,1.66,78.3,6.32,11.32,2.29,26.61,4.51,37.71,7.72,21.84,6.3,50.89,15.2,71.89,23.9,20.72,8.58,47.79,21.85,66.38,34.39,9.25,6.24,22.08,13.88,30.82,20.82,17.41,13.81,40.52,32.53,56.24,48.25s34.44,38.83,48.25,56.25c6.94,8.74,14.58,21.56,20.82,30.81,12.54,18.6,25.81,45.66,34.39,66.38,8.7,21,17.6,50.06,23.9,71.9,3.2,11.09,5.43,26.39,7.72,37.7,4.66,23.11,5.36,54.76,6.31,78.31-1,23.54-1.65,55.2-6.31,78.3-2.29,11.32-4.52,26.61-7.72,37.7-6.3,21.84-15.2,50.9-23.9,71.9-8.58,20.72-21.85,47.78-34.39,66.38C887,746.4,879.39,759.22,872.45,768c-13.81,17.42-32.52,40.53-48.25,56.25-7.86,7.86-18.74,17.95-27.18,25.19S776.68,865.54,768,872.46,746.39,887,737.14,893.28s-22.5,13.29-32.44,18.44-23.58,11.56-33.94,15.94-24.57,9.76-35.32,13.33-25.6,7.41-36.57,10.58-26.39,5.43-37.71,7.71C538.06,964,506.42,965.12,482.86,965.6Z" fill="none" stroke="#000" stroke-miterlimit="10" stroke-width="0.25"/></g></g><g style="isolation:isolate"><g clip-path="url(#clip-path-2)"><g style="isolation:isolate"><path d="M482.86,965.6c266.57,0,482.66-216.13,482.66-482.73H491.28C491.28,749.47,487.51,965.6,482.86,965.6Z" fill="none" stroke="#000" stroke-miterlimit="10" stroke-width="0.25"/><path d="M726.47,899.69H487.11" fill="none" stroke="#000" stroke-miterlimit="10" stroke-width="0.25"/><path d="M899.62,726.51H490.13" fill="none" stroke="#000" stroke-miterlimit="10" stroke-width="0.25"/><path d="M965.52,482.87C965.52,216.26,749.43.13,482.86.12c4.65,0,8.42,216.14,8.42,482.75Z" fill="none" stroke="#000" stroke-miterlimit="10" stroke-width="0.25"/><path d="M899.62,239.22H490.13" fill="none" stroke="#000" stroke-miterlimit="10" stroke-width="0.25"/><path d="M726.47,66H487.11" fill="none" stroke="#000" stroke-miterlimit="10" stroke-width="0.25"/></g><path d="M965.59,482.87c0-23.57-1.65-55.2-6.31-78.31-2.29-11.31-4.52-26.61-7.72-37.7-6.3-21.84-15.2-50.9-23.9-71.9-8.58-20.72-21.85-47.78-34.39-66.38-6.24-9.25-13.88-22.07-20.82-30.81-13.81-17.42-32.52-40.53-48.25-56.25S785.37,107.08,768,93.27c-8.74-6.94-21.57-14.58-30.82-20.82-18.59-12.54-45.66-25.81-66.38-34.39-21-8.7-50-17.6-71.89-23.9-11.1-3.21-26.39-5.43-37.71-7.72-23.1-4.66-54.75-5.36-78.3-6.31,266.57,0,482.66,216.13,482.66,482.74S749.43,965.6,482.86,965.6c11.89,0,27.74-.64,39.59-1.6,11.66-.94,27.16-2.86,38.71-4.72s26.5-4.95,37.71-7.71,25.71-7,36.57-10.58a477.52,477.52,0,0,0,69.26-29.27C724.54,901.46,749.45,885,768,872.46c17.41-13.82,39.94-33.14,56.24-48.25,0,0,34.44-38.83,48.25-56.25,6.94-8.74,14.58-21.56,20.82-30.81,12.54-18.6,25.81-45.66,34.39-66.38,8.7-21,17.6-50.06,23.9-71.9,3.2-11.09,5.43-26.38,7.72-37.7C963.94,538.07,965.59,506.43,965.59,482.87Z" fill="none" stroke="#000" stroke-miterlimit="10" stroke-width="0.25"/></g></g><g style="isolation:isolate"><g clip-path="url(#clip-path-3)"><g style="isolation:isolate"><path d="M482.86,965.6C216.29,965.6.2,749.47.2,482.87H474.43C474.43,749.47,478.21,965.6,482.86,965.6Z" fill="none" stroke="#000" stroke-miterlimit="10" stroke-width="0.25"/><path d="M239.25,899.69H478.61" fill="none" stroke="#000" stroke-miterlimit="10" stroke-width="0.25"/><path d="M66.1,726.51H475.58" fill="none" stroke="#000" stroke-miterlimit="10" stroke-width="0.25"/><path d="M482.86,965.6c-232.52,0-421-216.13-421-482.73" fill="none" stroke="#000" stroke-miterlimit="10" stroke-width="0.25"/><path d="M482.86,965.6C344.3,965.6,232,749.47,232,482.87" fill="none" stroke="#000" stroke-miterlimit="10" stroke-width="0.25"/><path d="M482.86,965.6c-4.65,0-8.43-216.13-8.43-482.73H965.52C965.52,749.47,749.43,965.6,482.86,965.6Z" fill="none" stroke="#000" stroke-miterlimit="10" stroke-width="0.25"/><path d="M478.61,899.69H726.47" fill="none" stroke="#000" stroke-miterlimit="10" stroke-width="0.25"/><path d="M475.58,726.51h424" fill="none" stroke="#000" stroke-miterlimit="10" stroke-width="0.25"/><path d="M482.86,965.6c130.52,0,236.33-216.13,236.33-482.73" fill="none" stroke="#000" stroke-miterlimit="10" stroke-width="0.25"/><path d="M482.86,965.6c227.82,0,412.51-216.13,412.51-482.73" fill="none" stroke="#000" stroke-miterlimit="10" stroke-width="0.25"/><path d="M.2,482.87C.2,216.26,216.29.12,482.86.12c-4.65,0-8.43,216.14-8.43,482.75Z" fill="none" stroke="#000" stroke-miterlimit="10" stroke-width="0.25"/><path d="M66.1,239.22H475.58" fill="none" stroke="#000" stroke-miterlimit="10" stroke-width="0.25"/><path d="M239.25,66H478.61" fill="none" stroke="#000" stroke-miterlimit="10" stroke-width="0.25"/><path d="M61.85,482.87C61.85,216.26,250.34.13,482.86.12" fill="none" stroke="#000" stroke-miterlimit="10" stroke-width="0.25"/><path d="M232,482.87C232,216.26,344.3.13,482.86.12" fill="none" stroke="#000" stroke-miterlimit="10" stroke-width="0.25"/><path d="M474.43,482.87c0-266.61,3.78-482.74,8.43-482.75,266.57,0,482.66,216.14,482.66,482.75Z" fill="none" stroke="#000" stroke-miterlimit="10" stroke-width="0.25"/><path d="M475.58,239.22h424" fill="none" stroke="#000" stroke-miterlimit="10" stroke-width="0.25"/><path d="M478.61,66H726.47" fill="none" stroke="#000" stroke-miterlimit="10" stroke-width="0.25"/><path d="M719.19,482.87C719.19,216.26,613.38.13,482.86.12" fill="none" stroke="#000" stroke-miterlimit="10" stroke-width="0.25"/><path d="M895.37,482.87C895.37,216.26,710.68.13,482.86.12" fill="none" stroke="#000" stroke-miterlimit="10" stroke-width="0.25"/></g><path d="M482.86,965.6c-11.88-.48-27.74-.64-39.59-1.6-11.66-.94-27.25-2.4-38.71-4.72s-26.61-4.51-37.71-7.71-25.73-7-36.57-10.58-24.86-9-35.32-13.33S271,916.89,261,911.72s-23.15-12.19-32.43-18.44-22.08-13.89-30.82-20.82c-17.41-13.82-40.23-32.83-56.25-48.25-8-7.71-17.94-18.75-25.18-27.19S100.18,776.68,93.26,768,78.69,746.4,72.45,737.15c-12.54-18.6-25.81-45.66-34.39-66.38-8.7-21-17.61-50.06-23.91-71.9-3.2-11.09-5.42-26.38-7.71-37.7s-3.77-27-4.71-38.71c-1-11.85-1.6-27.71-1.6-39.59a486,486,0,0,1,6.31-78.31A480.84,480.84,0,0,1,93.26,197.77,484.76,484.76,0,0,1,261,54,479.84,479.84,0,0,1,404.56,6.44,488,488,0,0,1,482.86.12c266.57,0,482.66,216.14,482.66,482.75S749.43,965.6,482.86,965.6Z" fill="none" stroke="#000" stroke-miterlimit="10" stroke-width="0.25"/><path d="M401.68,421.26H333c-7.82-43.17-9.92-54.77-15.21-98.21-1.25-44-1.28-55.21,1.14-97.81h-3.44C297.79,268,293.66,279,278.65,323.05c-15,41.32-19,52.42-32.25,98.21H189.26c-8.07-93.35-6.12-164,27.78-248.65h32.09c-10.8,37.43-15.73,54.51-20,109.55-3.91,45.77-3.91,45.77-4,70.61,15.49-47.17,15.49-47.17,24.83-70.61,20.06-41.92,29.21-61.05,58.64-109.55H358c-.42,37-.61,53.83,5.73,109.55,3.3,45.44,3.3,45.44,6.15,70.61,12-46.58,12-46.58,18.85-70.61,13.49-37.6,19.64-54.75,40.66-109.55h46.2c-24.49,82.93-51,165.25-73.91,248.65" fill="none" stroke="#000" stroke-miterlimit="10" stroke-width="0.25"/><path d="M727.44,256.83c-47.05-70-113.49-51.46-125.38-1-18.61,79,63.4,141.14,116.36,108,19.85-12.43,23.28-33.94,24.93-44.27h42.81c4,120.52-124.09,132-192.18,65.38-79.88-78.17-49.81-213.43,48-216h0c50.32,2.21,94.93,33.44,125.61,87.94h-40.2" fill="none" stroke="#000" stroke-miterlimit="10" stroke-width="0.25"/><path d="M739.83,662.36c-9.84-71.54-88.5-62.78-122.93-15.24-37.79,52.2-18.17,130.75,44.74,121,33.8-5.26,54.32-34.6,61.06-44.24l39.41,0c-71.52,120.27-191,106.82-211.94,7.5C535.62,662.49,581.75,562.85,689.92,557h0c62.36,2.93,95.93,41.32,92.12,105.33H739.83" fill="none" stroke="#000" stroke-miterlimit="10" stroke-width="0.25"/><path d="M372.93,662.36c-38.13-71.79-115-63-131.53-15.24C218.27,714,297.32,794.56,354.18,762c18-10.29,23.25-28.43,26.08-38.17l51.65,0C407.05,844.45,279.63,831,218.37,731.36,177,664.12,185,562.77,291.68,557c66,3,115.77,41.36,136.59,105.33H372.93" fill="none" stroke="#000" stroke-miterlimit="10" stroke-width="0.25"/></g></g></g></g></g></svg>