<svg xmlns="http://www.w3.org/2000/svg" viewBox="0 0 342.67 42"><defs><style>.cls-1{fill:#61a60e;}.cls-2{fill:#002f56;}</style></defs><title>Asset 2</title><g id="Layer_2" data-name="Layer 2"><g id="Layer_1-2" data-name="Layer 1"><path class="cls-1" d="M39.3,0H1.57A1.54,1.54,0,0,0,0,1.57V40a1.54,1.54,0,0,0,1.57,1.58H26.09a15.28,15.28,0,0,1-7.31-3.66l2.61-3.11A11.33,11.33,0,0,0,29.18,38c2.68,0,4.37-1.23,4.37-3.13s-1-2.72-5.57-3.81c-5.25-1.24-8.21-2.82-8.21-7.41,0-4.3,3.52-7.19,8.42-7.19a13.68,13.68,0,0,1,9,3.1l-2.33,3.28a11.18,11.18,0,0,0-6.7-2.54c-2.54,0-4,1.31-4,3,0,1.94,1.13,2.79,5.86,3.92,5.21,1.27,7.93,3.14,7.93,7.26,0,3.77-2.39,6.3-6.05,7.12H39.3A1.55,1.55,0,0,0,40.88,40V1.57A1.54,1.54,0,0,0,39.3,0Z"/><path class="cls-2" d="M317.61,23.35c0-1.66,1.48-3,4-3a11.23,11.23,0,0,1,6.7,2.53l2.33-3.28a13.68,13.68,0,0,0-9-3.1c-4.9,0-8.43,2.89-8.43,7.2,0,4.58,3,6.17,8.22,7.4,4.58,1.09,5.57,2,5.57,3.81s-1.69,3.14-4.37,3.14a11.38,11.38,0,0,1-7.79-3.21L312.29,38a15.21,15.21,0,0,0,10.29,4c5.19,0,8.82-2.75,8.82-7.41,0-4.12-2.72-6-7.94-7.26-4.72-1.13-5.85-2-5.85-3.91ZM342,20.1v3.65h.67V19H342l-1.68,2.61L338.56,19h-.73v4.76h.69V20.1l1.68,2.59h.1L342,20.1Zm-6.75-.46h1.53V19H333v.65h1.54v4.11h.68V19.64Z"/><path class="cls-2" d="M53.09,8.63,47,.91H46v9.63h1.06V2.64l6.22,7.9h.87V.91H53.09V8.63ZM62.28.84h-1l-4.39,9.7H58L59.13,8h5.24l1.13,2.54h1.17L62.28.84ZM64,7H59.56l2.2-4.92L64,7Zm7.3-5.11h3.24v-1H66.92v1h3.23v8.63h1.1V1.91Zm6.2-1v9.63h1.08V.91Zm14.13,4.8a4.84,4.84,0,0,0-4.9-5,4.89,4.89,0,0,0-4.93,5,4.84,4.84,0,0,0,4.9,5,4.89,4.89,0,0,0,4.93-5Zm-1.13,0a3.79,3.79,0,0,1-3.77,4,3.84,3.84,0,0,1-3.8-4,3.79,3.79,0,0,1,3.77-4,3.83,3.83,0,0,1,3.8,4Zm11.34,2.89L95.72.91h-1v9.63h1.06V2.64l6.22,7.9h.87V.91h-1.06V8.63ZM111,.84h-1l-4.39,9.7h1.11L107.83,8h5.25l1.13,2.54h1.17L111,.84ZM112.65,7h-4.39l2.2-4.92L112.65,7Zm5.45,3.52h6.51v-1h-5.42V.91H118.1v9.63ZM137,.84h-1l-4.39,9.7h1.12L133.83,8h5.24l1.13,2.54h1.17L137,.84ZM138.65,7h-4.39l2.2-4.92L138.65,7Zm6.09-3.7c0-.89.8-1.57,2-1.57a4.21,4.21,0,0,1,2.78,1l.64-.84A5.07,5.07,0,0,0,146.82.77c-1.83,0-3.17,1.1-3.17,2.64s1,2.31,3.24,2.8c2,.42,2.5.93,2.5,1.84s-.85,1.65-2.14,1.65a4.59,4.59,0,0,1-3.31-1.36l-.67.8a5.66,5.66,0,0,0,3.94,1.54c1.91,0,3.28-1.07,3.28-2.74,0-1.49-1-2.27-3.13-2.74s-2.62-1-2.62-1.88Zm9.5,0c0-.89.79-1.57,2-1.57a4.23,4.23,0,0,1,2.78,1L159.7,2A5,5,0,0,0,156.32.77c-1.83,0-3.17,1.1-3.17,2.64s1,2.31,3.23,2.8c2,.42,2.51.93,2.51,1.84S158,9.7,156.74,9.7a4.59,4.59,0,0,1-3.3-1.36l-.67.8a5.62,5.62,0,0,0,3.93,1.54c1.92,0,3.29-1.07,3.29-2.74,0-1.49-1-2.27-3.14-2.74s-2.61-1-2.61-1.88ZM172,5.71a4.84,4.84,0,0,0-4.9-5,4.89,4.89,0,0,0-4.93,5,4.84,4.84,0,0,0,4.9,5,4.89,4.89,0,0,0,4.93-5Zm-1.13,0a3.79,3.79,0,0,1-3.77,4,3.84,3.84,0,0,1-3.8-4,3.79,3.79,0,0,1,3.77-4,3.84,3.84,0,0,1,3.8,4Zm12,3.27-.72-.7A4.17,4.17,0,0,1,179,9.7a3.81,3.81,0,0,1-3.73-4,3.77,3.77,0,0,1,3.73-4,4.19,4.19,0,0,1,3,1.32l.74-.8A5,5,0,0,0,179,.74a4.86,4.86,0,0,0-4.88,5,4.82,4.82,0,0,0,4.84,5A5,5,0,0,0,182.85,9Zm2.82-8.1v9.63h1.09V.91Zm8.9-.07h-1l-4.39,9.7h1.11L191.42,8h5.25l1.13,2.54H199L194.57.84ZM196.24,7h-4.39l2.2-4.92L196.24,7Zm7.86-5.11h3.23v-1h-7.57v1H203v8.63h1.1V1.91Zm6.19-1v9.63h1.09V.91Zm14,4.8a4.84,4.84,0,0,0-4.9-5,4.89,4.89,0,0,0-4.93,5,4.84,4.84,0,0,0,4.9,5,4.89,4.89,0,0,0,4.93-5Zm-1.13,0a3.79,3.79,0,0,1-3.77,4,3.84,3.84,0,0,1-3.8-4,3.79,3.79,0,0,1,3.77-4,3.84,3.84,0,0,1,3.8,4Zm11.2,2.89L228.29.91h-1v9.63h1.06V2.64l6.22,7.9h.87V.91h-1.06V8.63Zm19-2.92a4.83,4.83,0,0,0-4.89-5,4.88,4.88,0,0,0-4.93,5,4.91,4.91,0,1,0,9.82,0Zm-1.12,0a3.79,3.79,0,0,1-3.77,4,3.83,3.83,0,0,1-3.8-4,3.79,3.79,0,0,1,3.77-4,3.84,3.84,0,0,1,3.8,4ZM263.37.91h-6.92v9.63h1.09V6.34h5.21v-1h-5.21V1.91h5.83v-1Z"/><path class="cls-2" d="M180.37,35.19l-5.88-18.3H169.8l8.6,24.86h3.74L188.2,24l6.07,17.73H198l8.6-24.86h-4.55l-5.89,18.3-6.06-18.37h-3.67l-6.07,18.37Zm50.22,6.39-6.67-9.35c3.46-.95,5.89-3.42,5.89-7.51,0-4.83-3.49-7.83-9.17-7.83h-11V41.58H214V33h5.43l6.06,8.61ZM225.4,25c0,2.54-2,4.16-5.07,4.16H214V20.84h6.31c3.21,0,5.11,1.41,5.11,4.13Zm8.92-8.08V41.58h4.34V16.89Zm20.32,4h7.82v-4h-20v4h7.83V41.58h4.38V20.91Zm30-4h-18.3V41.58h18.48V37.7H270.68V31.07h12.37V27.19H270.68V20.77h14V16.89Zm25.57,24.69-6.67-9.35c3.46-.95,5.89-3.42,5.89-7.51,0-4.83-3.49-7.83-9.17-7.83h-11V41.58h4.34V33H299l6.06,8.61ZM305,25c0,2.54-2,4.16-5.07,4.16H293.6V20.84h6.31c3.21,0,5.11,1.41,5.11,4.13Z"/><path class="cls-1" d="M60.13,37.63l-2.78-2.82c-2.12,2-4.06,3.21-7.09,3.21-4.72,0-8.14-4-8.14-8.82s3.42-8.74,8.14-8.74a9.81,9.81,0,0,1,6.91,3.06L60,20.31a12.9,12.9,0,0,0-9.66-3.84,12.5,12.5,0,0,0-12.73,12.8A12.42,12.42,0,0,0,50.12,42a12.72,12.72,0,0,0,10-4.37Zm4.09-20.74V41.58h4.34V16.89Zm28.18,0H74.1V41.58H92.57V37.7H78.43V31.07H90.81V27.19H78.43V20.77h14V16.89ZM114.26,34,101,16.89H97V41.58h4.26V24l13.61,17.56h3.64V16.89h-4.27V34Zm30,3.67-2.78-2.82c-2.12,2-4.06,3.21-7.09,3.21-4.73,0-8.15-4-8.15-8.82s3.42-8.74,8.15-8.74a9.81,9.81,0,0,1,6.91,3.06l2.79-3.21a12.92,12.92,0,0,0-9.67-3.84,12.5,12.5,0,0,0-12.73,12.8A12.43,12.43,0,0,0,134.22,42a12.72,12.72,0,0,0,10-4.37Zm22.5-20.74h-18.3V41.58H166.9V37.7H152.76V31.07h12.38V27.19H152.76V20.77h14V16.89Z"/></g></g></svg>