<svg id="Layer_1" data-name="Layer 1" xmlns="http://www.w3.org/2000/svg" viewBox="0 0 776 182"><path d="M449,60.54l9-.88q.81,4.55,3.3,6.67A10,10,0,0,0,468,68.46q4.48,0,6.76-1.89a5.66,5.66,0,0,0,2.27-4.43,4.18,4.18,0,0,0-1-2.78,7.74,7.74,0,0,0-3.34-2c-1.08-.37-3.56-1-7.42-2q-7.46-1.84-10.47-4.55A12.08,12.08,0,0,1,452.64,35a12.41,12.41,0,0,1,5.74-4.65,22.88,22.88,0,0,1,9-1.6q8.64,0,13,3.79A13.34,13.34,0,0,1,485,42.68l-9.27.41A8,8,0,0,0,473.2,38q-2-1.55-5.88-1.55A10.67,10.67,0,0,0,461,38.1,3.35,3.35,0,0,0,459.52,41a3.52,3.52,0,0,0,1.38,2.78q1.75,1.48,8.52,3.07a45.09,45.09,0,0,1,10,3.31,12.88,12.88,0,0,1,5.08,4.67,14.48,14.48,0,0,1-.36,14.71,13.12,13.12,0,0,1-6.21,5.12,25.92,25.92,0,0,1-10,1.68q-8.71,0-13.38-4T449,60.54Z"/><path d="M492,58.38a18,18,0,0,1,2.16-8.5,14.93,14.93,0,0,1,6.13-6.26,18.18,18.18,0,0,1,8.85-2.16,16.63,16.63,0,0,1,12.38,4.9,17,17,0,0,1,4.82,12.39,17.13,17.13,0,0,1-4.87,12.52,16.48,16.48,0,0,1-12.27,5,19.41,19.41,0,0,1-8.72-2.06,14.22,14.22,0,0,1-6.32-6.07A20.18,20.18,0,0,1,492,58.38Zm9,.47c0,3.3.78,5.82,2.35,7.58a7.68,7.68,0,0,0,11.57,0q2.34-2.64,2.34-7.65c0-3.26-.78-5.76-2.34-7.52a7.68,7.68,0,0,0-11.57,0Q501.07,53.9,501.07,58.85Z"/><path d="M562.72,58.59l9,2.86q-2.07,7.51-6.88,11.16t-12.2,3.65a19.74,19.74,0,0,1-15-6.25q-5.9-6.24-5.89-17.09,0-11.46,5.92-17.81t15.57-6.34q8.43,0,13.69,5a18,18,0,0,1,4.7,8.46l-9.18,2.19a9.49,9.49,0,0,0-9.68-7.71,10.48,10.48,0,0,0-8.29,3.67q-3.18,3.66-3.18,11.87,0,8.72,3.14,12.41a10.14,10.14,0,0,0,8.14,3.7A9.3,9.3,0,0,0,558.9,66C560.68,64.42,562,62,562.72,58.59Z"/><path d="M586.19,52.36l-8-1.44a12.43,12.43,0,0,1,4.64-7.14q3.28-2.33,9.77-2.32c3.93,0,6.85.46,8.78,1.39a8.73,8.73,0,0,1,4.05,3.54q1.18,2.14,1.18,7.88l-.1,10.28A35.76,35.76,0,0,0,607,71a18.9,18.9,0,0,0,1.58,4.46h-8.71c-.23-.58-.51-1.45-.85-2.6-.14-.52-.25-.87-.31-1a15.86,15.86,0,0,1-4.82,3.29,13.9,13.9,0,0,1-5.49,1.09,11.4,11.4,0,0,1-8.1-2.78,9.29,9.29,0,0,1-3-7,9.45,9.45,0,0,1,1.35-5A8.83,8.83,0,0,1,582.42,58a29.76,29.76,0,0,1,7-2A47.74,47.74,0,0,0,598,53.77v-.88a4.58,4.58,0,0,0-1.25-3.62c-.84-.72-2.42-1.08-4.73-1.08a5.29,5.29,0,0,0-5.8,4.17ZM598,59.5a52.87,52.87,0,0,1-5.36,1.35,15.77,15.77,0,0,0-4.79,1.54,3.65,3.65,0,0,0-1.72,3.1,4.29,4.29,0,0,0,1.38,3.19A4.77,4.77,0,0,0,591,70a7.6,7.6,0,0,0,4.55-1.57,5.55,5.55,0,0,0,2.1-2.91,17.41,17.41,0,0,0,.34-4.29Z"/><path d="M615.3,75.48V29.55h8.8V75.48Z"/><path d="M150.54,137.53l9-.87q.83,4.54,3.31,6.67a10,10,0,0,0,6.72,2.13q4.49,0,6.75-1.89a5.65,5.65,0,0,0,2.27-4.44,4.21,4.21,0,0,0-1-2.77,7.64,7.64,0,0,0-3.34-2c-1.09-.38-3.56-1-7.42-2-5-1.23-8.46-2.74-10.47-4.54a11.94,11.94,0,0,1-4.23-9.24,11.75,11.75,0,0,1,2-6.56,12.52,12.52,0,0,1,5.73-4.66,23.1,23.1,0,0,1,9-1.59q8.65,0,13,3.79a13.36,13.36,0,0,1,4.59,10.12l-9.27.4a7.89,7.89,0,0,0-2.56-5.09q-2-1.55-5.87-1.55a10.63,10.63,0,0,0-6.33,1.66,3.35,3.35,0,0,0-1.47,2.85,3.52,3.52,0,0,0,1.38,2.79c1.17,1,4,2,8.52,3.07a45.09,45.09,0,0,1,10,3.31,12.86,12.86,0,0,1,5.07,4.67,14.42,14.42,0,0,1-.36,14.71,13.19,13.19,0,0,1-6.2,5.12,26.13,26.13,0,0,1-10,1.67q-8.72,0-13.38-4T150.54,137.53Z"/><path d="M224.64,129,216,130.61a6.33,6.33,0,0,0-2-3.92,6,6,0,0,0-4-1.31,6.57,6.57,0,0,0-5.24,2.27c-1.31,1.51-2,4-2,7.6,0,3.95.66,6.73,2,8.36a6.52,6.52,0,0,0,5.34,2.45,5.92,5.92,0,0,0,4.1-1.43,8.54,8.54,0,0,0,2.26-4.9l8.65,1.47a15.37,15.37,0,0,1-5.17,9q-3.82,3-10.25,3c-4.87,0-8.74-1.53-11.64-4.6s-4.34-7.33-4.34-12.76S195.13,126.1,198,123s6.83-4.59,11.78-4.59q6.08,0,9.66,2.62A14.47,14.47,0,0,1,224.64,129Z"/><path d="M231.31,114.69v-8.14h8.8v8.14Zm0,37.79V119.21h8.8v33.27Z"/><path d="M268.41,141.89l8.77,1.47a14.41,14.41,0,0,1-5.34,7.35,15.73,15.73,0,0,1-9.14,2.52q-8.67,0-12.84-5.67a19.08,19.08,0,0,1-3.29-11.47q0-8.26,4.32-13a14.26,14.26,0,0,1,10.94-4.69q7.43,0,11.71,4.91t4.11,15H255.59a8.87,8.87,0,0,0,2.13,6.09,6.64,6.64,0,0,0,5.08,2.18,5.35,5.35,0,0,0,3.48-1.13A6.94,6.94,0,0,0,268.41,141.89Zm.5-8.9a8.48,8.48,0,0,0-2-5.81,6,6,0,0,0-4.57-2,6.11,6.11,0,0,0-4.76,2.1,8.09,8.09,0,0,0-1.85,5.7Z"/><path d="M315.09,152.48h-8.81v-17c0-3.59-.18-5.92-.56-7a4.9,4.9,0,0,0-1.83-2.46,5.23,5.23,0,0,0-3.06-.88,7.09,7.09,0,0,0-4.1,1.25,6.37,6.37,0,0,0-2.49,3.32,28.63,28.63,0,0,0-.68,7.65v15.07h-8.8V119.21h8.18v4.88a13.63,13.63,0,0,1,16.29-4.59,9,9,0,0,1,3.65,2.68,9.75,9.75,0,0,1,1.72,3.7,27,27,0,0,1,.49,5.92Z"/><path d="M353,129l-8.68,1.57a6.28,6.28,0,0,0-2-3.92,6,6,0,0,0-4-1.31,6.58,6.58,0,0,0-5.25,2.27c-1.31,1.51-2,4-2,7.6,0,3.95.66,6.73,2,8.36a6.54,6.54,0,0,0,5.34,2.45,6,6,0,0,0,4.11-1.43,8.6,8.6,0,0,0,2.25-4.9l8.65,1.47a15.32,15.32,0,0,1-5.17,9q-3.82,3-10.25,3-7.29,0-11.64-4.6t-4.33-12.76q0-8.24,4.35-12.83t11.78-4.59q6.07,0,9.67,2.62A14.51,14.51,0,0,1,353,129Z"/><path d="M379,141.89l8.77,1.47a14.35,14.35,0,0,1-5.34,7.35,15.7,15.7,0,0,1-9.13,2.52q-8.68,0-12.85-5.67a19.08,19.08,0,0,1-3.29-11.47q0-8.26,4.33-13a14.24,14.24,0,0,1,10.93-4.69q7.42,0,11.72,4.91t4.1,15h-22a8.87,8.87,0,0,0,2.13,6.09,6.62,6.62,0,0,0,5.07,2.18,5.35,5.35,0,0,0,3.48-1.13A6.94,6.94,0,0,0,379,141.89Zm.5-8.9a8.48,8.48,0,0,0-2-5.81,6,6,0,0,0-4.58-2,6.12,6.12,0,0,0-4.76,2.1,8.14,8.14,0,0,0-1.85,5.7Z"/><path d="M419.79,152.48l-11-45.93h9.49l6.93,31.55,8.39-31.55h11l8.05,32.08,7-32.08h9.34L458,152.48h-9.84L439,118.14l-9.12,34.34Z"/><path d="M481.05,152.48h-8.81V119.21h8.18v4.73a14.28,14.28,0,0,1,3.77-4.42,7,7,0,0,1,3.81-1.07,11.24,11.24,0,0,1,5.8,1.66l-2.73,7.68a7.72,7.72,0,0,0-4.13-1.44,4.89,4.89,0,0,0-3.14,1,7,7,0,0,0-2,3.68q-.73,2.65-.73,11.15Z"/><path d="M497.59,114.69v-8.14h8.8v8.14Zm0,37.79V119.21h8.8v33.27Z"/><path d="M530.67,119.21v7h-6v13.41a32.71,32.71,0,0,0,.17,4.75,1.92,1.92,0,0,0,.78,1.11,2.46,2.46,0,0,0,1.49.44,11.39,11.39,0,0,0,3.54-.84l.75,6.83a17.58,17.58,0,0,1-6.95,1.31,10.86,10.86,0,0,1-4.29-.8,6.23,6.23,0,0,1-2.81-2.07,8.21,8.21,0,0,1-1.24-3.43,43.94,43.94,0,0,1-.28-6.2V126.22h-4v-7h4V112.6l8.84-5.14v11.75Z"/><path d="M556.05,141.89l8.77,1.47a14.35,14.35,0,0,1-5.34,7.35,15.7,15.7,0,0,1-9.13,2.52q-8.69,0-12.85-5.67a19.08,19.08,0,0,1-3.29-11.47q0-8.26,4.33-13a14.24,14.24,0,0,1,10.93-4.69q7.42,0,11.72,4.91t4.1,15h-22a8.87,8.87,0,0,0,2.13,6.09,6.62,6.62,0,0,0,5.07,2.18,5.35,5.35,0,0,0,3.48-1.13A6.94,6.94,0,0,0,556.05,141.89Zm.5-8.9a8.48,8.48,0,0,0-2-5.81,6.36,6.36,0,0,0-9.34.11,8.14,8.14,0,0,0-1.85,5.7Z"/><path d="M580.9,152.48h-8.81V119.21h8.18v4.73a14.28,14.28,0,0,1,3.77-4.42,7,7,0,0,1,3.81-1.07,11.24,11.24,0,0,1,5.8,1.66l-2.73,7.68a7.72,7.72,0,0,0-4.13-1.44,4.89,4.89,0,0,0-3.14,1,7,7,0,0,0-2,3.68q-.74,2.65-.73,11.15Z"/><path d="M594.34,143l8.83-1.35a6.5,6.5,0,0,0,2.29,3.9,7.72,7.72,0,0,0,4.82,1.33,8.75,8.75,0,0,0,5.14-1.25,2.81,2.81,0,0,0,1.16-2.35,2.34,2.34,0,0,0-.62-1.66,7,7,0,0,0-3-1.16q-10.65-2.35-13.5-4.29a8.57,8.57,0,0,1-4-7.49A9.25,9.25,0,0,1,599,121.4q3.42-2.94,10.59-3,6.84,0,10.15,2.23a11.37,11.37,0,0,1,4.58,6.58l-8.3,1.53a5.13,5.13,0,0,0-2-3,7.35,7.35,0,0,0-4.24-1,9.63,9.63,0,0,0-5,1,2.09,2.09,0,0,0-1,1.79,2,2,0,0,0,.87,1.6c.8.58,3.54,1.41,8.23,2.47s8,2.37,9.82,3.92a8.14,8.14,0,0,1,2.76,6.55,10,10,0,0,1-3.83,7.86c-2.55,2.19-6.31,3.29-11.31,3.29q-6.79,0-10.76-2.76A12.65,12.65,0,0,1,594.34,143Z"/><polyline points="625.5 93.84 150.5 93.84 150.5 28.71 212.5 29.84 150.5 93.84" fill="none" stroke="#000" stroke-miterlimit="10" stroke-width="10"/><polygon points="150.5 66.84 174.04 66.06 150.5 93.84 150.5 66.84"/></svg>